<svg xmlns="http://www.w3.org/2000/svg" viewBox="0 0 1600 900" preserveAspectRatio="xMidYMid slice" role="img" aria-label="在家工作設置封面">
  <defs>
    <linearGradient id="bg" x1="0" y1="0" x2="1" y2="1">
      <stop offset="0" stop-color="#15152e"/>
      <stop offset="1" stop-color="#0a0a1a"/>
    </linearGradient>
    <linearGradient id="accent" x1="0" y1="0" x2="1" y2="0">
      <stop offset="0" stop-color="#8B5CF6"/>
      <stop offset="1" stop-color="#a78bfa"/>
    </linearGradient>
    <pattern id="grid" width="60" height="60" patternUnits="userSpaceOnUse">
      <path d="M 60 0 L 0 0 0 60" fill="none" stroke="#ffffff" stroke-opacity="0.04" stroke-width="1"/>
    </pattern>
  </defs>
  <rect width="1600" height="900" fill="url(#bg)"/>
  <rect width="1600" height="900" fill="url(#grid)"/>
  <circle cx="1250" cy="200" r="280" fill="#8B5CF6" opacity="0.12"/>
  <g transform="translate(800,460)">
    <rect x="-220" y="-40" width="440" height="140" rx="14" fill="#111127" stroke="rgba(255,255,255,0.1)" stroke-width="2"/>
    <rect x="-200" y="-20" width="400" height="28" rx="6" fill="#1a1a36"/>
    <rect x="-200" y="24" width="160" height="56" rx="6" fill="#15152e"/>
    <rect x="-24" y="24" width="224" height="56" rx="6" fill="#15152e"/>
    <rect x="-200" y="-90" width="56" height="50" rx="6" fill="url(#accent)" opacity="0.9"/>
    <path d="M-172 -70 l16 16 10-10 14 14 18-22" fill="none" stroke="#f1f5f9" stroke-width="4" stroke-linecap="round" stroke-linejoin="round"/>
  </g>
  <text x="80" y="120" font-family="Noto Sans TC, sans-serif" font-size="52" font-weight="800" fill="#f1f5f9">CubedHub Editorial</text>
</svg>
